# 3ds Max Wavefront OBJ Exporter v0.97b - (c)2007 guruware
# 创建的文件:18.01.2019 19:06:54

#
# object Box001
#

v  -95.0000 0.0000 130.0000
v  32.3760 0.0000 130.0000
v  32.3760 8.0000 130.0000
v  -95.0000 8.0000 130.0000
v  95.0000 0.0000 130.0000
v  95.0000 0.0000 -130.0000
v  95.0000 8.0000 -130.0000
v  95.0000 8.0000 130.0000
v  -95.0000 0.0000 -130.0000
v  -95.0000 8.0000 -130.0000
v  59.8238 0.0000 130.0000
v  59.8238 8.0000 130.0000
# 12 vertices

vn -0.7071 0.0000 0.7071
vn 0.0000 0.0000 1.0000
vn 0.7071 0.0000 0.7071
vn 0.7071 0.0000 -0.7071
vn -0.7071 0.0000 -0.7071
# 5 vertex normals

vt 0.0000 0.0000 0.0000
vt 0.6704 0.0000 0.0000
vt 0.6704 1.0000 0.0000
vt 0.0000 1.0000 0.0000
vt 1.0000 0.0000 0.0000
vt 1.0000 1.0000 0.0000
vt 0.8149 0.0000 0.0000
vt 0.8149 1.0000 0.0000
# 8 texture coords

o Box001
g Box001
s 8
f 1/1/1 2/2/2 3/3/2 4/4/1 
s 16
f 5/1/3 6/5/4 7/6/4 8/4/3 
s 32
f 6/1/4 9/5/5 10/6/5 7/4/4 
s 64
f 9/1/5 1/5/1 4/6/1 10/4/5 
s 8
f 11/7/2 5/5/3 8/6/3 12/8/2 
# 5 polygons

#
# object Plane001
#

v  32.3760 8.0000 130.0000
v  32.3760 0.0000 130.0000
v  59.8238 0.0000 130.0000
v  59.8238 8.0000 130.0000
# 4 vertices

vn 0.0000 -0.0000 1.0000
# 1 vertex normals

vt 0.0000 1.0000 0.0000
vt 0.0000 0.0000 0.0000
vt 1.0000 0.0000 0.0000
vt 1.0000 1.0000 0.0000
# 4 texture coords

o Plane001
g Plane001
s 1
f 13/9/6 14/10/6 15/11/6 16/12/6 
# 1 polygons

