<svg width="800" height="600" xmlns="http://www.w3.org/2000/svg">
 <!-- Created with Method Draw - http://github.com/duopixel/Method-Draw/ -->
 <g>
  <title>background</title>
  <rect fill="#ffffff" id="canvas_background" height="602" width="802" y="-1" x="-1"/>
  <g display="none" overflow="visible" y="0" x="0" height="100%" width="100%" id="canvasGrid">
   <rect fill="url(#gridpattern)" stroke-width="0" y="0" x="0" height="100%" width="100%"/>
  </g>
 </g>
 <g>
  <title>Layer 1</title>
  <path stroke="#000" id="svg_5" d="m268.07458,388.56587c-9.43407,18.25029 -16.03941,27.83003 -48.13152,37.39765c-5.67093,2.6076 1.88175,8.69512 5.67093,7.82211c28.30294,-10.42937 34.90809,-19.13576 48.13152,-38.271c6.60534,24.36188 21.69759,40.01685 47.18436,49.58447l1.8945,-5.22646c34.92102,17.40134 61.3422,20.88212 83.98714,16.5285c21.71034,-4.35328 47.18436,-7.82177 67.96029,-5.21417c-13.21068,-9.56848 -20.77592,-20.88195 -23.59227,-34.79107c21.69778,-20.88127 64.1713,-13.04789 84.93448,-25.22328l-4.72359,-9.57957c45.30261,-13.9093 83.99988,-36.52515 137.78959,-29.56427l-88.71073,-59.15261l1.88175,-7.83389c-26.42118,-18.26223 -56.61861,-22.61585 -90.60504,-10.42886c11.32875,-30.4494 0,-63.49462 31.15733,-86.98263c-7.5525,-13.04823 0,-31.31064 13.21068,-47.83913c1.89468,-31.31046 11.316,-59.14681 28.30294,-84.37026c-27.36834,16.5285 -54.72412,31.31046 -83.0398,44.36467l-4.72359,-9.5736c-11.316,16.53396 -27.36852,28.70918 -49.07886,35.65794l-3.77625,-9.56762c-29.26302,26.96913 -64.1713,40.87826 -85.88182,80.03387c6.60534,-38.28261 -5.67074,-75.6806 -22.65749,-106.12419l-6.60534,6.09333c-12.26334,-37.40379 -55.67146,-61.75987 -83.0398,-92.20329c11.316,83.50237 -21.72326,93.93754 -20.76337,140.04243l-11.34149,0.86089c16.05233,46.97773 -5.65819,68.72057 4.72359,100.90422c-26.42118,-12.17539 -60.40779,-3.48061 -83.05272,-22.61602c27.36834,40.01736 36.81552,88.71739 83.05272,121.77388l-6.60534,2.6076c16.98675,17.38939 38.69727,32.18365 76.4472,40.89038z" stroke-opacity="null" stroke-width="1.5" fill="#5f00bf"/>
  <text font-style="normal" font-weight="normal" stroke="#000" transform="matrix(8.724806333467997,0,0,4.367648649029245,-851.0685907359341,-1693.7653850744043) " xml:space="preserve" text-anchor="start" font-family="'Anton'" font-size="24" id="svg_7" y="518.31396" x="99.61951" stroke-opacity="null" stroke-width="0" fill="#007f7f">CC-ADMIN</text>
 </g>
</svg>