<svg width="1024" height="1024" xmlns="http://www.w3.org/2000/svg">
 <!-- Created with Method Draw - http://github.com/duopixel/Method-Draw/ -->
 <g>
  <title>background</title>
  <rect fill="none" id="canvas_background" height="1026" width="1026" y="-1" x="-1"/>
  <g display="none" overflow="visible" y="0" x="0" height="100%" width="100%" id="canvasGrid">
   <rect fill="url(#gridpattern)" stroke-width="0" y="0" x="0" height="100%" width="100%"/>
  </g>
 </g>
 <g>
  <title>Layer 1</title>
  <path stroke="#000" id="svg_1" d="m769.60202,706.19854c-35.25232,-0.48482 33.57292,-2.24997 45.78112,-3.2229c102.01015,-2.70771 186.66968,-113.72456 175.65161,-223.89706c-2.23108,-110.24606 -99.23822,-207.09191 -200.20581,-195.99794c-26.28187,-12.2206 -63.59022,28.10951 -79.90805,8.84635c-41.91294,-80.93099 -82.52215,-162.70743 -126.12393,-242.56184c-37.13982,-5.80259 -81.38653,-10.28779 -117.51589,0.71065c-16.70313,28.80034 13.66557,36.6411 32.6158,32.19497c21.15089,0 42.30179,0 63.45271,0c15.31179,30.57809 31.024,60.9125 46.66961,91.28654c-88.86693,0 -177.73396,0 -266.60088,0c-1.97893,-10.34746 -24.42631,-32.64219 -4.52562,-30.21877c36.15537,-4.98801 13.53878,-50.72738 -13.23556,-37.71543c-37.58293,1.51167 -76.49439,-4.05533 -112.94942,4.19193c-19.47378,42.78047 36.83346,33.60268 60.97037,34.05612c17.86591,-6.3829 21.56835,13.16687 28.64207,26.54397c28.68015,32.15734 10.85363,66.04941 -8.42221,97.39761c-7.07039,14.26094 -12.1073,34.0535 -29.31244,20.72835c-35.08543,-8.43907 -73.33507,-8.74514 -108.24701,1.12252c-72.9519,23.72413 -131.44434,97.76168 -136.34143,181.63013c-4.4189,51.51524 5.64211,104.61527 34.93625,146.17351c33.97688,53.26998 89.11703,82.43869 147.12535,88.3557m45.47963,0.51999c52.88442,-14.85507 101.64257,-49.41482 129.9105,-101.59033c18.49905,-26.0794 20.90395,-66.45803 30.73653,-92.61875c25.93293,-0.37141 51.86589,-0.74285 77.79888,-1.11422c52.52414,-92.48955 98.81966,-189.21845 149.48545,-282.99735c9.87614,32.10485 66.02183,75.78377 35.02077,105.33683c-77.80231,71.45817 -88.16325,211.03551 -21.6177,295.17294c30.49627,37.42051 72.80112,63.20776 116.28899,77.78458m-3.34026,-50.88312c-83.92013,-20.00383 -137.5468,-125.9205 -108.51979,-214.25448c8.97057,-28.76975 33.65306,-74.72675 55.45341,-75.19773c23.23846,43.91827 44.14418,89.40902 69.61298,131.85565c55.92712,10.76818 4.6879,-63.77114 -7.14592,-89.10001c-12.6875,-30.90359 -58.76086,-80.89521 -0.72048,-80.15501c40.7463,-4.43836 84.04848,-0.14626 117.01064,29.45736c70.7387,51.24015 84.12729,168.43743 30.55733,239.08575c-36.26536,51.4684 -98.89173,73.35007 -156.24814,58.3085l-0.00003,-0.00003zm-587.15711,-0.01274c-71.62874,-18.42168 -123.17372,-99.00555 -113.90222,-178.98364c4.90356,-88.88198 85.88294,-160.76486 166.39057,-148.8184c60.32794,-6.24974 2.57095,54.37382 -6.05222,83.84603c-8.20364,31.29413 -53.39571,69.73055 -28.16512,100.24888c56.58951,2.59498 114.56651,-1.82228 171.00064,4.42359c-10.13599,81.91222 -80.95516,149.67122 -157.37407,143.40309c-10.72436,-0.09574 -21.5004,-1.08885 -31.89761,-4.11955l0.00003,0zm231.18017,-183.05926c-6.81603,-64.09035 -40.0048,-122.38902 -88.40767,-158.86705c-2.85969,-15.72134 26.44867,-88.13162 37.18025,-37.64892c33.12461,65.90498 66.42435,131.72163 98.53396,198.22409c-15.38236,0.40725 -32.62587,3.3473 -47.30654,-1.70812zm-172.90612,-3.17868c19.0947,-39.29268 38.61339,-78.34954 58.57154,-117.12459c40.03667,23.11038 66.37571,72.01809 72.60187,120.83399c-43.71496,-1.02001 -88.16324,2.50027 -131.28719,-2.54918l0.11361,-1.16026l0,0l0.00017,0.00004zm187.2701,-141.72817c-18.83221,-38.04598 -38.02183,-75.89149 -56.27237,-114.27535c79.35891,-1.94736 158.89789,-2.37394 238.23,0.41158c-40.74846,76.65817 -77.56247,156.28571 -122.11695,230.24955c-21.54364,-36.27288 -39.84082,-78.03377 -59.84068,-116.38575l0,-0.00003z" stroke-width="1.5" fill="#ffffff"/>
  <text stroke-width="0" style="cursor: move;" font-style="normal" font-weight="normal" stroke="#000" transform="matrix(7.240734529336059,0,0,11.534715448763563,-456.9946092437368,-7590.331945401093) " xml:space="preserve" text-anchor="start" font-family="'Poppins Black'" font-size="24" id="svg_2" y="742.16543" x="65.4077" stroke-opacity="null" fill="#ffffff">CC-ADMIN</text>
 </g>
</svg>