<svg width="800" height="500" xmlns="http://www.w3.org/2000/svg">
 <!-- Created with Method Draw - http://github.com/duopixel/Method-Draw/ -->
 <g>
  <title>background</title>
  <rect fill="none" id="canvas_background" height="502" width="802" y="-1" x="-1"/>
  <g display="none" overflow="visible" y="0" x="0" height="100%" width="100%" id="canvasGrid">
   <rect fill="url(#gridpattern)" stroke-width="0" y="0" x="0" height="100%" width="100%"/>
  </g>
 </g>
 <g>
  <title>Layer 1</title>
  <ellipse stroke="#000" stroke-dasharray="2,2" ry="192.5" rx="386.99996" id="svg_10" cy="205" cx="395.99999" stroke-opacity="null" stroke-width="0.5" fill="#e5e5e5"/>
  <path stroke="#000" id="svg_5" d="m247.91305,335.02665c-10.96668,13.66761 -18.64509,20.84187 -55.95072,28.00705c-6.5922,1.95283 2.18745,6.51177 6.5922,5.85797c32.90089,-7.81054 40.57908,-14.33074 55.95072,-28.6611c7.67841,18.24458 25.22247,29.96857 54.84969,37.13375l2.20227,-3.91409c40.59411,13.03184 71.30754,15.63859 97.63126,12.37817c25.23729,-3.26016 54.84969,-5.85771 79.00077,-3.90489c-15.35682,-7.16582 -24.15107,-15.63846 -27.42495,-26.05499c25.22269,-15.63795 74.59623,-9.77155 98.7325,-18.88968l-5.49096,-7.17413c52.66224,-10.41665 97.64607,-27.35364 160.17417,-22.14064l-103.12221,-44.29931l2.18745,-5.86679c-30.71343,-13.67656 -65.81658,-16.93698 -105.32426,-7.81016c13.16916,-22.80352 0,-47.55104 36.21899,-65.14118c-8.77944,-9.7718 0,-23.44849 15.35682,-35.82666c2.20248,-23.44837 13.15434,-44.29496 32.90089,-63.18477c-31.81446,12.37817 -63.61432,23.44837 -96.53002,33.22464l-5.49096,-7.16965c-13.15434,12.38226 -31.81467,21.50027 -57.05196,26.70418l-4.38972,-7.16518c-34.01694,20.19715 -74.59623,30.61367 -99.83374,59.93726c7.67841,-28.66979 -6.59198,-56.6771 -26.33831,-79.47627l-7.67841,4.56329c-14.25558,-28.01165 -64.71556,-46.25188 -96.53002,-69.05092c13.15434,62.53481 -25.25231,70.3497 -24.13648,104.87759l-13.18397,0.64472c18.66011,35.18156 -6.57739,51.46474 5.49096,75.56703c-30.71343,-9.11813 -70.22133,-2.60662 -96.54504,-16.93711c31.81446,29.96895 42.79637,66.44034 96.54504,91.1963l-7.67841,1.95283c19.74633,13.02289 44.98383,24.10229 88.86642,30.62275z" stroke-opacity="null" stroke-width="1.5" fill="#5f00bf"/>
  <text font-style="normal" font-weight="normal" stroke="#000" transform="matrix(8.756604643707876,0,0,3.06908518736298,-925.982780063307,-1061.5712810252253) " xml:space="preserve" text-anchor="start" font-family="'Anton'" font-size="24" id="svg_7" y="502.53691" x="107.25116" stroke-opacity="null" stroke-width="0" fill="#007f7f">CC-ADMIN</text>
 </g>
</svg>